# xmcd
#
# Track frame offsets: 
#        150
#        3725
#        16413
#        32947
#        48924
#        67834
#        97194
#        124501
#        147932
#        161738
#        167064
#        182991
#        201806
#        209389
#
# Disc length: 3211 seconds
#
# Revision: 0
# Processed by: cddbd v1.5.2PL0 Copyright (c) Steve Scherf et al.
# Submitted via: ExactAudioCopy v1.0b1
#
DISCID=c60c890e
DTITLE=Taxi Violence - The Turn
DYEAR=2009
DGENRE=Rock
TTITLE0=Mezousa
TTITLE1=Venus Fly Trap
TTITLE2=Heads or Tails
TTITLE3=Depth of Feel
TTITLE4=Devil 'n Pistol
TTITLE5=Valley of Shadows
TTITLE6=Hold 'Em or Fold 'Em
TTITLE7=Waste Not
TTITLE8=The Turn
TTITLE9=Lose That Halo
TTITLE10=Seven Shots
TTITLE11=Death To Hollywood
TTITLE12=Van My Sinne Beroof
TTITLE13=Churchgoin' Man
EXTD=
EXTT0=
EXTT1=
EXTT2=
EXTT3=
EXTT4=
EXTT5=
EXTT6=
EXTT7=
EXTT8=
EXTT9=
EXTT10=
EXTT11=
EXTT12=
EXTT13=
PLAYORDER=
